<mxfile host="Electron" modified="2023-12-11T12:40:51.188Z" agent="Mozilla/5.0 (X11; Linux x86_64) AppleWebKit/537.36 (KHTML, like Gecko) draw.io/22.1.2 Chrome/114.0.5735.289 Electron/25.9.4 Safari/537.36" etag="k0O9CD4PZ4TQGDYb8T3y" version="22.1.2" type="device">
  <diagram name="Page-1" id="ZWc7nCh2QI_eMbKnv97j">
    <mxGraphModel dx="1434" dy="838" grid="1" gridSize="10" guides="1" tooltips="1" connect="1" arrows="1" fold="1" page="1" pageScale="1" pageWidth="827" pageHeight="1169" math="0" shadow="0">
      <root>
        <mxCell id="0" />
        <mxCell id="1" parent="0" />
        <mxCell id="5z8ixYUVozmAElx02gLT-14" value="" style="rounded=0;whiteSpace=wrap;html=1;fillColor=none;" vertex="1" parent="1">
          <mxGeometry x="200" y="40" width="700" height="500" as="geometry" />
        </mxCell>
        <mxCell id="5z8ixYUVozmAElx02gLT-7" style="rounded=0;orthogonalLoop=1;jettySize=auto;html=1;entryX=0;entryY=0.5;entryDx=0;entryDy=0;entryPerimeter=0;" edge="1" parent="1" source="5z8ixYUVozmAElx02gLT-1" target="5z8ixYUVozmAElx02gLT-6">
          <mxGeometry relative="1" as="geometry" />
        </mxCell>
        <mxCell id="5z8ixYUVozmAElx02gLT-1" value="" style="shape=image;verticalLabelPosition=bottom;labelBackgroundColor=default;verticalAlign=top;aspect=fixed;imageAspect=0;image=https://www.raspberrypi.com/app/uploads/2022/02/COLOUR-Raspberry-Pi-Symbol-Registered.png;" vertex="1" parent="1">
          <mxGeometry x="40" y="130" width="121" height="121.2" as="geometry" />
        </mxCell>
        <mxCell id="5z8ixYUVozmAElx02gLT-2" value="" style="sketch=0;points=[[0,0,0],[0.25,0,0],[0.5,0,0],[0.75,0,0],[1,0,0],[0,1,0],[0.25,1,0],[0.5,1,0],[0.75,1,0],[1,1,0],[0,0.25,0],[0,0.5,0],[0,0.75,0],[1,0.25,0],[1,0.5,0],[1,0.75,0]];outlineConnect=0;fontColor=#232F3E;fillColor=#7AA116;strokeColor=#ffffff;dashed=0;verticalLabelPosition=bottom;verticalAlign=top;align=center;html=1;fontSize=12;fontStyle=0;aspect=fixed;shape=mxgraph.aws4.resourceIcon;resIcon=mxgraph.aws4.iot_core;" vertex="1" parent="1">
          <mxGeometry x="250" y="151.6" width="78" height="78" as="geometry" />
        </mxCell>
        <mxCell id="5z8ixYUVozmAElx02gLT-3" style="edgeStyle=orthogonalEdgeStyle;rounded=0;orthogonalLoop=1;jettySize=auto;html=1;entryX=0;entryY=0.5;entryDx=0;entryDy=0;entryPerimeter=0;startArrow=classic;startFill=1;" edge="1" parent="1" source="5z8ixYUVozmAElx02gLT-1" target="5z8ixYUVozmAElx02gLT-2">
          <mxGeometry relative="1" as="geometry" />
        </mxCell>
        <mxCell id="5z8ixYUVozmAElx02gLT-4" value="" style="sketch=0;points=[[0,0,0],[0.25,0,0],[0.5,0,0],[0.75,0,0],[1,0,0],[0,1,0],[0.25,1,0],[0.5,1,0],[0.75,1,0],[1,1,0],[0,0.25,0],[0,0.5,0],[0,0.75,0],[1,0.25,0],[1,0.5,0],[1,0.75,0]];outlineConnect=0;fontColor=#232F3E;fillColor=#7AA116;strokeColor=#ffffff;dashed=0;verticalLabelPosition=bottom;verticalAlign=top;align=center;html=1;fontSize=12;fontStyle=0;aspect=fixed;shape=mxgraph.aws4.resourceIcon;resIcon=mxgraph.aws4.iot_sitewise;" vertex="1" parent="1">
          <mxGeometry x="410" y="151.6" width="78" height="78" as="geometry" />
        </mxCell>
        <mxCell id="5z8ixYUVozmAElx02gLT-5" style="edgeStyle=orthogonalEdgeStyle;rounded=0;orthogonalLoop=1;jettySize=auto;html=1;entryX=0;entryY=0.5;entryDx=0;entryDy=0;entryPerimeter=0;" edge="1" parent="1" source="5z8ixYUVozmAElx02gLT-2" target="5z8ixYUVozmAElx02gLT-4">
          <mxGeometry relative="1" as="geometry" />
        </mxCell>
        <mxCell id="5z8ixYUVozmAElx02gLT-10" style="rounded=0;orthogonalLoop=1;jettySize=auto;html=1;" edge="1" parent="1" source="5z8ixYUVozmAElx02gLT-6" target="5z8ixYUVozmAElx02gLT-8">
          <mxGeometry relative="1" as="geometry" />
        </mxCell>
        <mxCell id="5z8ixYUVozmAElx02gLT-6" value="" style="sketch=0;points=[[0,0,0],[0.25,0,0],[0.5,0,0],[0.75,0,0],[1,0,0],[0,1,0],[0.25,1,0],[0.5,1,0],[0.75,1,0],[1,1,0],[0,0.25,0],[0,0.5,0],[0,0.75,0],[1,0.25,0],[1,0.5,0],[1,0.75,0]];outlineConnect=0;fontColor=#232F3E;fillColor=#ED7100;strokeColor=#ffffff;dashed=0;verticalLabelPosition=bottom;verticalAlign=top;align=center;html=1;fontSize=12;fontStyle=0;aspect=fixed;shape=mxgraph.aws4.resourceIcon;resIcon=mxgraph.aws4.kinesis_video_streams;" vertex="1" parent="1">
          <mxGeometry x="250" y="280" width="78" height="78" as="geometry" />
        </mxCell>
        <mxCell id="5z8ixYUVozmAElx02gLT-12" style="edgeStyle=orthogonalEdgeStyle;rounded=0;orthogonalLoop=1;jettySize=auto;html=1;" edge="1" parent="1" source="5z8ixYUVozmAElx02gLT-8" target="5z8ixYUVozmAElx02gLT-11">
          <mxGeometry relative="1" as="geometry" />
        </mxCell>
        <mxCell id="5z8ixYUVozmAElx02gLT-8" value="" style="sketch=0;points=[[0,0,0],[0.25,0,0],[0.5,0,0],[0.75,0,0],[1,0,0],[0,1,0],[0.25,1,0],[0.5,1,0],[0.75,1,0],[1,1,0],[0,0.25,0],[0,0.5,0],[0,0.75,0],[1,0.25,0],[1,0.5,0],[1,0.75,0]];outlineConnect=0;fontColor=#232F3E;fillColor=#7AA116;strokeColor=#ffffff;dashed=0;verticalLabelPosition=bottom;verticalAlign=top;align=center;html=1;fontSize=12;fontStyle=0;aspect=fixed;shape=mxgraph.aws4.resourceIcon;resIcon=mxgraph.aws4.iot_twinmaker;" vertex="1" parent="1">
          <mxGeometry x="590" y="240" width="78" height="78" as="geometry" />
        </mxCell>
        <mxCell id="5z8ixYUVozmAElx02gLT-9" style="rounded=0;orthogonalLoop=1;jettySize=auto;html=1;entryX=0;entryY=0.5;entryDx=0;entryDy=0;entryPerimeter=0;" edge="1" parent="1" source="5z8ixYUVozmAElx02gLT-4" target="5z8ixYUVozmAElx02gLT-8">
          <mxGeometry relative="1" as="geometry" />
        </mxCell>
        <mxCell id="5z8ixYUVozmAElx02gLT-11" value="" style="sketch=0;points=[[0,0,0],[0.25,0,0],[0.5,0,0],[0.75,0,0],[1,0,0],[0,1,0],[0.25,1,0],[0.5,1,0],[0.75,1,0],[1,1,0],[0,0.25,0],[0,0.5,0],[0,0.75,0],[1,0.25,0],[1,0.5,0],[1,0.75,0]];points=[[0,0,0],[0.25,0,0],[0.5,0,0],[0.75,0,0],[1,0,0],[0,1,0],[0.25,1,0],[0.5,1,0],[0.75,1,0],[1,1,0],[0,0.25,0],[0,0.5,0],[0,0.75,0],[1,0.25,0],[1,0.5,0],[1,0.75,0]];outlineConnect=0;fontColor=#232F3E;fillColor=#E7157B;strokeColor=#ffffff;dashed=0;verticalLabelPosition=bottom;verticalAlign=top;align=center;html=1;fontSize=12;fontStyle=0;aspect=fixed;shape=mxgraph.aws4.resourceIcon;resIcon=mxgraph.aws4.managed_service_for_grafana;" vertex="1" parent="1">
          <mxGeometry x="780" y="240" width="78" height="78" as="geometry" />
        </mxCell>
        <mxCell id="5z8ixYUVozmAElx02gLT-15" value="" style="shape=image;verticalLabelPosition=bottom;labelBackgroundColor=default;verticalAlign=top;aspect=fixed;imageAspect=0;image=https://uploads.concordia.net/2023/02/16161824/1200px-Amazon_Web_Services_Logo.svg-1.png;" vertex="1" parent="1">
          <mxGeometry x="810" y="40" width="90" height="89.92" as="geometry" />
        </mxCell>
        <mxCell id="5z8ixYUVozmAElx02gLT-16" value="IoT Core" style="text;html=1;align=center;verticalAlign=middle;resizable=0;points=[];autosize=1;strokeColor=none;fillColor=none;" vertex="1" parent="1">
          <mxGeometry x="254" y="120" width="70" height="30" as="geometry" />
        </mxCell>
        <mxCell id="5z8ixYUVozmAElx02gLT-17" value="IoT SiteWise" style="text;html=1;align=center;verticalAlign=middle;resizable=0;points=[];autosize=1;strokeColor=none;fillColor=none;" vertex="1" parent="1">
          <mxGeometry x="404" y="120" width="90" height="30" as="geometry" />
        </mxCell>
        <mxCell id="5z8ixYUVozmAElx02gLT-18" value="IoT TwinMaker" style="text;html=1;align=center;verticalAlign=middle;resizable=0;points=[];autosize=1;strokeColor=none;fillColor=none;" vertex="1" parent="1">
          <mxGeometry x="579" y="210" width="100" height="30" as="geometry" />
        </mxCell>
        <mxCell id="5z8ixYUVozmAElx02gLT-19" value="Kinesis Video Stream" style="text;html=1;align=center;verticalAlign=middle;resizable=0;points=[];autosize=1;strokeColor=none;fillColor=none;" vertex="1" parent="1">
          <mxGeometry x="221" y="249" width="140" height="30" as="geometry" />
        </mxCell>
        <mxCell id="5z8ixYUVozmAElx02gLT-20" value="Grafana" style="text;html=1;align=center;verticalAlign=middle;resizable=0;points=[];autosize=1;strokeColor=none;fillColor=none;" vertex="1" parent="1">
          <mxGeometry x="784" y="211" width="70" height="30" as="geometry" />
        </mxCell>
        <mxCell id="5z8ixYUVozmAElx02gLT-21" value="Raspberry Pi" style="text;html=1;align=center;verticalAlign=middle;resizable=0;points=[];autosize=1;strokeColor=none;fillColor=none;" vertex="1" parent="1">
          <mxGeometry x="52" y="232" width="90" height="30" as="geometry" />
        </mxCell>
      </root>
    </mxGraphModel>
  </diagram>
</mxfile>
